# xmcd CD database file
#
# Track frame offsets:
#	150
#	23895
#	50442
#	73635
#	99177
#	116635
#	138595
#
# Disc length: 2162 seconds
#
# Revision: 0
# Processed by: cddbd v1.5.1PL0 Copyright (c) Steve Scherf et al.
# Submitted via: CDex 1.51
#
DISCID=5b087007
DTITLE=武内　亨　プロデュース - cool christmas
DYEAR=1993
DGENRE=Jazz
TTITLE0=SILENT NIGHT - Pianica Maeda
TTITLE1=WHITE CHRISTMAS - Ruby Ruby Star
TTITLE2=GOD'S WITH US - Brick Flower
TTITLE3=WE THREE KINGS - Brick Flower
TTITLE4=ON A CLEAR DAY - Ruby Ruby Star
TTITLE5=JOY TO THE WORLD - Pianica Maeda
TTITLE6=JINGLE BELLS - Cool Christmas All Stars
EXTD=YEAR: 1993
EXTT0=
EXTT1=
EXTT2=
EXTT3=
EXTT4=
EXTT5=
EXTT6=
PLAYORDER=
